<svg width="1024" height="600" viewBox="0 0 1024 600" fill="none" xmlns="http://www.w3.org/2000/svg">
<g clip-path="url(#clip0_9_866)">
<rect width="1024" height="600" fill="#A0A0A0"/>
<line x1="1472" y1="12.5002" x2="-448" y2="12.5" stroke="#919191"/>
<line x1="1472" y1="28.5002" x2="-448" y2="28.5" stroke="#919191"/>
<line x1="1472" y1="44.5002" x2="-448" y2="44.5" stroke="#919191"/>
<line x1="1472" y1="60.5002" x2="-448" y2="60.5" stroke="#919191"/>
<line x1="1472" y1="76.5002" x2="-448" y2="76.5" stroke="#919191"/>
<line x1="1472" y1="92.5002" x2="-448" y2="92.5" stroke="#919191"/>
<line x1="1472" y1="108.5" x2="-448" y2="108.5" stroke="#919191"/>
<line x1="1472" y1="124.5" x2="-448" y2="124.5" stroke="#919191"/>
<line x1="1472" y1="140.5" x2="-448" y2="140.5" stroke="#919191"/>
<line x1="1472" y1="156.5" x2="-448" y2="156.5" stroke="#919191"/>
<line x1="1472" y1="172.5" x2="-448" y2="172.5" stroke="#919191"/>
<line x1="1472" y1="188.5" x2="-448" y2="188.5" stroke="#919191"/>
<line x1="1472" y1="204.5" x2="-448" y2="204.5" stroke="#919191"/>
<line x1="1472" y1="220.5" x2="-448" y2="220.5" stroke="#919191"/>
<line x1="1472" y1="236.5" x2="-448" y2="236.5" stroke="#919191"/>
<line x1="1472" y1="252.5" x2="-448" y2="252.5" stroke="#919191"/>
<line x1="1472" y1="268.5" x2="-448" y2="268.5" stroke="#919191"/>
<line x1="1472" y1="284.5" x2="-448" y2="284.5" stroke="#919191"/>
<line x1="1472" y1="300.5" x2="-448" y2="300.5" stroke="#919191"/>
<line x1="1472" y1="316.5" x2="-448" y2="316.5" stroke="#919191"/>
<line x1="1472" y1="332.5" x2="-448" y2="332.5" stroke="#919191"/>
<line x1="1472" y1="348.5" x2="-448" y2="348.5" stroke="#919191"/>
<line x1="1472" y1="364.5" x2="-448" y2="364.5" stroke="#919191"/>
<line x1="1472" y1="380.5" x2="-448" y2="380.5" stroke="#919191"/>
<line x1="1472" y1="396.5" x2="-448" y2="396.5" stroke="#919191"/>
<line x1="1472" y1="412.5" x2="-448" y2="412.5" stroke="#919191"/>
<line x1="1472" y1="428.5" x2="-448" y2="428.5" stroke="#919191"/>
<line x1="1472" y1="444.5" x2="-448" y2="444.5" stroke="#919191"/>
<line x1="1472" y1="460.5" x2="-448" y2="460.5" stroke="#919191"/>
<line x1="1472" y1="476.5" x2="-448" y2="476.5" stroke="#919191"/>
<line x1="1472" y1="492.5" x2="-448" y2="492.5" stroke="#919191"/>
<line x1="1472" y1="508.5" x2="-448" y2="508.5" stroke="#919191"/>
<line x1="1472" y1="524.5" x2="-448" y2="524.5" stroke="#919191"/>
<line x1="1472" y1="540.5" x2="-448" y2="540.5" stroke="#919191"/>
<line x1="1472" y1="556.5" x2="-448" y2="556.5" stroke="#919191"/>
<line x1="1472" y1="572.5" x2="-448" y2="572.5" stroke="#919191"/>
<line x1="1472" y1="588.5" x2="-448" y2="588.5" stroke="#919191"/>
<line x1="0.5" y1="-180" x2="0.499958" y2="780" stroke="#919191"/>
<line x1="16.5" y1="-180" x2="16.5" y2="780" stroke="#919191"/>
<line x1="32.5" y1="-180" x2="32.5" y2="780" stroke="#919191"/>
<line x1="48.5" y1="-180" x2="48.5" y2="780" stroke="#919191"/>
<line x1="64.5" y1="-180" x2="64.5" y2="780" stroke="#919191"/>
<line x1="80.5" y1="-180" x2="80.5" y2="780" stroke="#919191"/>
<line x1="96.5" y1="-180" x2="96.5" y2="780" stroke="#919191"/>
<line x1="112.5" y1="-180" x2="112.5" y2="780" stroke="#919191"/>
<line x1="128.5" y1="-180" x2="128.5" y2="780" stroke="#919191"/>
<line x1="144.5" y1="-180" x2="144.5" y2="780" stroke="#919191"/>
<line x1="160.5" y1="-180" x2="160.5" y2="780" stroke="#919191"/>
<line x1="176.5" y1="-180" x2="176.5" y2="780" stroke="#919191"/>
<line x1="192.5" y1="-180" x2="192.5" y2="780" stroke="#919191"/>
<line x1="208.5" y1="-180" x2="208.5" y2="780" stroke="#919191"/>
<line x1="224.5" y1="-180" x2="224.5" y2="780" stroke="#919191"/>
<line x1="240.5" y1="-180" x2="240.5" y2="780" stroke="#919191"/>
<line x1="256.5" y1="-180" x2="256.5" y2="780" stroke="#919191"/>
<line x1="272.5" y1="-180" x2="272.5" y2="780" stroke="#919191"/>
<line x1="288.5" y1="-180" x2="288.5" y2="780" stroke="#919191"/>
<line x1="304.5" y1="-180" x2="304.5" y2="780" stroke="#919191"/>
<line x1="320.5" y1="-180" x2="320.5" y2="780" stroke="#919191"/>
<line x1="336.5" y1="-180" x2="336.5" y2="780" stroke="#919191"/>
<line x1="352.5" y1="-180" x2="352.5" y2="780" stroke="#919191"/>
<line x1="368.5" y1="-180" x2="368.5" y2="780" stroke="#919191"/>
<line x1="384.5" y1="-180" x2="384.5" y2="780" stroke="#919191"/>
<line x1="400.5" y1="-180" x2="400.5" y2="780" stroke="#919191"/>
<line x1="416.5" y1="-180" x2="416.5" y2="780" stroke="#919191"/>
<line x1="432.5" y1="-180" x2="432.5" y2="780" stroke="#919191"/>
<line x1="448.5" y1="-180" x2="448.5" y2="780" stroke="#919191"/>
<line x1="464.5" y1="-180" x2="464.5" y2="780" stroke="#919191"/>
<line x1="480.5" y1="-180" x2="480.5" y2="780" stroke="#919191"/>
<line x1="496.5" y1="-180" x2="496.5" y2="780" stroke="#919191"/>
<line x1="512.5" y1="-180" x2="512.5" y2="780" stroke="#919191"/>
<line x1="528.5" y1="-180" x2="528.5" y2="780" stroke="#919191"/>
<line x1="544.5" y1="-180" x2="544.5" y2="780" stroke="#919191"/>
<line x1="560.5" y1="-180" x2="560.5" y2="780" stroke="#919191"/>
<line x1="576.5" y1="-180" x2="576.5" y2="780" stroke="#919191"/>
<line x1="592.5" y1="-180" x2="592.5" y2="780" stroke="#919191"/>
<line x1="608.5" y1="-180" x2="608.5" y2="780" stroke="#919191"/>
<line x1="624.5" y1="-180" x2="624.5" y2="780" stroke="#919191"/>
<line x1="640.5" y1="-180" x2="640.5" y2="780" stroke="#919191"/>
<line x1="656.5" y1="-180" x2="656.5" y2="780" stroke="#919191"/>
<line x1="672.5" y1="-180" x2="672.5" y2="780" stroke="#919191"/>
<line x1="688.5" y1="-180" x2="688.5" y2="780" stroke="#919191"/>
<line x1="704.5" y1="-180" x2="704.5" y2="780" stroke="#919191"/>
<line x1="720.5" y1="-180" x2="720.5" y2="780" stroke="#919191"/>
<line x1="736.5" y1="-180" x2="736.5" y2="780" stroke="#919191"/>
<line x1="752.5" y1="-180" x2="752.5" y2="780" stroke="#919191"/>
<line x1="768.5" y1="-180" x2="768.5" y2="780" stroke="#919191"/>
<line x1="784.5" y1="-180" x2="784.5" y2="780" stroke="#919191"/>
<line x1="800.5" y1="-180" x2="800.5" y2="780" stroke="#919191"/>
<line x1="816.5" y1="-180" x2="816.5" y2="780" stroke="#919191"/>
<line x1="832.5" y1="-180" x2="832.5" y2="780" stroke="#919191"/>
<line x1="848.5" y1="-180" x2="848.5" y2="780" stroke="#919191"/>
<line x1="864.5" y1="-180" x2="864.5" y2="780" stroke="#919191"/>
<line x1="880.5" y1="-180" x2="880.5" y2="780" stroke="#919191"/>
<line x1="896.5" y1="-180" x2="896.5" y2="780" stroke="#919191"/>
<line x1="912.5" y1="-180" x2="912.5" y2="780" stroke="#919191"/>
<line x1="928.5" y1="-180" x2="928.5" y2="780" stroke="#919191"/>
<line x1="944.5" y1="-180" x2="944.5" y2="780" stroke="#919191"/>
<line x1="960.5" y1="-180" x2="960.5" y2="780" stroke="#919191"/>
<line x1="976.5" y1="-180" x2="976.5" y2="780" stroke="#919191"/>
<line x1="992.5" y1="-180" x2="992.5" y2="780" stroke="#919191"/>
<line x1="1008.5" y1="-180" x2="1008.5" y2="780" stroke="#919191"/>
</g>
<defs>
<clipPath id="clip0_9_866">
<rect width="1024" height="600" fill="white"/>
</clipPath>
</defs>
</svg>
