<svg width="11" height="11" viewBox="0 0 11 11" fill="none" xmlns="http://www.w3.org/2000/svg">
<path d="M3.71094 5.7118C3.34977 5.7118 3.05664 5.98402 3.05664 6.31944C3.05664 6.65485 3.34977 6.92707 3.71094 6.92707C4.07211 6.92707 4.36523 6.65485 4.36523 6.31944C4.36523 5.98402 4.07211 5.7118 3.71094 5.7118ZM6.85156 5.7118C6.49039 5.7118 6.19727 5.98402 6.19727 6.31944C6.19727 6.65485 6.49039 6.92707 6.85156 6.92707C7.21273 6.92707 7.50586 6.65485 7.50586 6.31944C7.50586 5.98402 7.21273 5.7118 6.85156 5.7118ZM5.28125 0.972214C2.39188 0.972214 0.046875 3.14999 0.046875 5.83332C0.046875 8.51666 2.39188 10.6944 5.28125 10.6944C8.17062 10.6944 10.5156 8.51666 10.5156 5.83332C10.5156 3.14999 8.17062 0.972214 5.28125 0.972214ZM5.28125 9.72221C2.97289 9.72221 1.09375 7.97707 1.09375 5.83332C1.09375 5.69235 1.10422 5.55138 1.11992 5.41527C2.35523 4.90485 3.33406 3.96666 3.84703 2.80485C4.79445 4.0493 6.3543 4.8611 8.11828 4.8611C8.52656 4.8611 8.91914 4.81735 9.29602 4.73471C9.40594 5.07985 9.46875 5.4493 9.46875 5.83332C9.46875 7.97707 7.58961 9.72221 5.28125 9.72221Z" fill="black"/>
</svg>
