<svg width="10" height="10" viewBox="0 0 10 10" fill="none" xmlns="http://www.w3.org/2000/svg">
<path d="M9.47398 6.92084C8.83016 6.92084 8.20727 6.82362 7.62625 6.64862C7.44305 6.59029 7.23891 6.63404 7.09758 6.76529L6.27578 7.72293C4.79445 7.06668 3.40734 5.82709 2.6693 4.40279L3.69 3.59584C3.83133 3.45973 3.8732 3.27015 3.81562 3.10001C3.62195 2.56043 3.5225 1.98195 3.5225 1.38404C3.5225 1.12154 3.28695 0.902786 3.0043 0.902786H1.1932C0.910547 0.902786 0.570312 1.01945 0.570312 1.38404C0.570312 5.90001 4.61648 9.65279 9.47398 9.65279C9.84562 9.65279 9.99219 9.34654 9.99219 9.07917V7.40209C9.99219 7.13959 9.75664 6.92084 9.47398 6.92084Z" fill="black"/>
</svg>
